<?xml version="1.0" standalone="no"?>
<!DOCTYPE svg PUBLIC "-//W3C//DTD SVG 20010904//EN"
 "http://www.w3.org/TR/2001/REC-SVG-20010904/DTD/svg10.dtd">
<svg version="1.0" xmlns="http://www.w3.org/2000/svg"
 width="799.000000pt" height="799.000000pt" viewBox="0 0 799.000000 799.000000"
 preserveAspectRatio="xMidYMid meet">
<metadata>
Created by potrace 1.14, written by Peter Selinger 2001-2017
</metadata>
<g transform="translate(0.000000,799.000000) scale(0.100000,-0.100000)"
fill="#000000" stroke="none">
<path d="M3967 7984 c-1 -1 -69 -5 -152 -8 -151 -6 -170 -8 -325 -27 -102 -12
-122 -15 -225 -35 -44 -8 -91 -17 -105 -20 -106 -19 -398 -102 -515 -147 -22
-8 -71 -27 -110 -42 -206 -79 -454 -203 -645 -323 -109 -68 -349 -238 -370
-261 -3 -3 -27 -24 -55 -45 -156 -123 -382 -348 -531 -527 -205 -246 -364
-490 -503 -768 -59 -116 -81 -166 -141 -306 -71 -167 -195 -597 -215 -745 -4
-25 -10 -63 -15 -85 -5 -22 -11 -65 -15 -95 -3 -30 -8 -66 -10 -80 -4 -25 -10
-90 -21 -210 -5 -66 -6 -466 0 -530 11 -121 17 -188 20 -210 2 -14 6 -50 10
-80 4 -30 9 -62 11 -70 2 -8 7 -35 11 -60 3 -25 7 -49 8 -55 1 -5 6 -26 10
-45 51 -249 138 -541 216 -725 218 -511 500 -936 869 -1305 452 -454 977 -779
1577 -976 145 -48 320 -96 399 -110 17 -3 50 -10 75 -15 25 -6 56 -12 70 -14
24 -3 67 -10 120 -20 14 -2 50 -7 80 -10 30 -4 66 -8 80 -10 197 -29 685 -25
927 9 21 3 61 8 88 12 41 5 248 43 317 59 365 82 797 257 1136 460 115 69 347
226 404 274 13 10 66 54 118 97 116 95 389 366 491 489 381 455 661 999 807
1565 46 178 63 267 97 505 28 194 36 513 21 765 -7 125 -9 136 -20 220 -3 25
-8 65 -11 90 -3 25 -7 56 -10 70 -3 14 -7 36 -10 50 -3 14 -10 50 -16 80 -5
30 -12 66 -15 80 -3 14 -7 33 -10 42 -3 9 -7 26 -9 37 -13 69 -110 393 -134
446 -5 11 -26 63 -46 115 -21 52 -70 163 -110 246 -62 127 -104 202 -250 443
-27 45 -137 197 -203 280 -198 250 -449 501 -672 671 -25 19 -47 37 -50 40
-27 33 -344 239 -485 317 -350 192 -816 362 -1145 418 -19 3 -42 8 -50 10 -8
2 -33 6 -55 10 -22 3 -53 8 -70 10 -16 3 -43 7 -58 9 -15 3 -58 8 -95 12 -37
3 -78 8 -92 10 -41 5 -390 21 -393 18z"/>
</g>
</svg>
