<svg xmlns:xlink="http://www.w3.org/1999/xlink" data-v-fde0c5aa="" xmlns="http://www.w3.org/2000/svg" viewBox="0 0 300 300" class="icon" width="300"  height="300" ><!----><defs data-v-fde0c5aa=""><!----></defs><rect data-v-fde0c5aa="" fill="#2E1435" x="0" y="0" width="300px" height="300px" class="logo-background-square"></rect><!----><defs data-v-fde0c5aa=""><!----></defs><g data-v-fde0c5aa="" id="a6d61af4-fd61-4d51-9b34-07f8dbac695d" fill="#EAE8E7" stroke="none" transform="matrix(3.6544850035190897,0,0,3.6544850035190897,33.05647988738914,33.42192716792506)"><path d="M8 62h23v-3h-5v-2h16a4 4 0 0 0 4-4v-2c-3.86 0-7-3.141-7-7h2c0 2.757 2.243 5 5 5v-5h7l-5-13v-2H31V5.796A23.01 23.01 0 0 0 25 5C12.297 5 2 15.297 2 28v6.515A20.484 20.484 0 0 0 8 49v13zm34-30h2v2h-2v-2zm0 4h2v2h-2v-2zm-4-4h2v2h-2v-2zm-4 0h2v2h-2v-2zm0 4h2v2h-2v-2zm-4-4h2v2h-2v-2zM26 8h2v2h-2V8zm0 4h2v2h-2v-2zm0 4h2v2h-2v-2zm0 4h2v2h-2v-2zm0 4h2v2h-2v-2zm0 4h2v2h-2v-2zm0 4h2v2h-2v-2zm0 4h2v2h-2v-2zm-2 23h-2v-2h2v2zm0-25h-2v-2h2v2zm0-8h-2v-2h2v2zm0-8h-2v-2h2v2zM21 8h2v2h-2V8zm-3 49h2v2h-2v-2zm-4 0h2v2h-2v-2zM50 4h-5l-.451.451a24.486 24.486 0 0 1 4.996 5.313 25.004 25.004 0 0 1 2.463 4.45l.337.786H45c-.83 0-1.58.34-2.12.88S42 17.17 42 18c0 1.66 1.34 3 3 3h17V8h-6l-6-4z" fill="#EAE8E7"></path><path d="M45 13h4.192a22.862 22.862 0 0 0-1.292-2.1 22.553 22.553 0 0 0-4.77-5.03A22.878 22.878 0 0 0 35 1.8V25h17v-1c0-.337-.019-.668-.034-1H45a5 5 0 0 1 0-10z" fill="#EAE8E7"></path></g><!----></svg>