<svg xmlns:xlink="http://www.w3.org/1999/xlink" data-v-fde0c5aa="" xmlns="http://www.w3.org/2000/svg" viewBox="0 0 336 192" class="iconLeft" width="336"  height="192" ><!----><defs data-v-fde0c5aa=""><!----></defs><!----><defs data-v-fde0c5aa=""><!----></defs><g data-v-fde0c5aa="" id="1b121e4a-c9e4-4cb0-a3cc-dcee8d53db16" fill="#EAE8E7" transform="matrix(2.573349313835137,0,0,2.573349313835137,89.77179461554418,81.15177404810329)"><path d="M5.57 10.84L2.90 1.96L2.81 1.96L2.81 9.10L2.81 9.10Q2.81 9.62 3.06 9.92L3.06 9.92L3.06 9.92Q3.30 10.22 3.70 10.22L3.70 10.22L4.20 10.22L4.20 10.67L0.87 10.67L0.87 10.22L1.37 10.22L1.37 10.22Q1.76 10.22 2.01 9.92L2.01 9.92L2.01 9.92Q2.25 9.62 2.25 9.10L2.25 9.10L2.25 1.53L2.25 1.53Q2.25 1.33 2.16 1.24L2.16 1.24L2.16 1.24Q2.07 1.15 1.88 1.15L1.88 1.15L0.87 1.15L0.87 0.70L3.84 0.70L6.12 8.41L8.25 0.70L11.14 0.70L11.14 1.15L10.14 1.15L10.14 1.15Q9.94 1.15 9.85 1.24L9.85 1.24L9.85 1.24Q9.76 1.33 9.76 1.53L9.76 1.53L9.76 9.84L9.76 9.84Q9.76 10.22 10.14 10.22L10.14 10.22L11.14 10.22L11.14 10.67L7.08 10.67L7.08 10.22L8.09 10.22L8.09 10.22Q8.47 10.22 8.47 9.84L8.47 9.84L8.47 1.58L5.91 10.84L5.57 10.84ZM15.29 10.84L15.29 10.84Q13.99 10.84 13.20 9.95L13.20 9.95L13.20 9.95Q12.40 9.07 12.40 7.50L12.40 7.50L12.40 7.50Q12.40 6.61 12.75 5.83L12.75 5.83L12.75 5.83Q13.10 5.05 13.73 4.59L13.73 4.59L13.73 4.59Q14.35 4.12 15.12 4.12L15.12 4.12L15.12 4.12Q15.97 4.12 16.52 4.58L16.52 4.58L16.52 4.58Q17.07 5.04 17.31 5.75L17.31 5.75L17.31 5.75Q17.56 6.45 17.56 7.20L17.56 7.20L17.56 7.20Q17.56 7.35 17.46 7.40L17.46 7.40L17.46 7.40Q17.36 7.45 17.12 7.45L17.12 7.45L13.64 7.45L13.64 7.45Q13.64 8.85 14.04 9.67L14.04 9.67L14.04 9.67Q14.43 10.50 15.34 10.50L15.34 10.50L15.34 10.50Q15.99 10.50 16.55 10.01L16.55 10.01L16.55 10.01Q17.12 9.52 17.28 8.48L17.28 8.48L17.61 8.48L17.61 8.48Q17.53 9.51 16.91 10.17L16.91 10.17L16.91 10.17Q16.28 10.84 15.29 10.84L15.29 10.84ZM13.64 7.11L16.35 7.11L16.35 7.11Q16.35 5.99 16.06 5.22L16.06 5.22L16.06 5.22Q15.76 4.45 15.09 4.45L15.09 4.45L15.09 4.45Q14.38 4.45 14.01 5.23L14.01 5.23L14.01 5.23Q13.64 6.01 13.64 7.11L13.64 7.11ZM18.70 10.67L18.70 10.33L19.29 10.33L19.29 10.33Q19.46 10.33 19.53 10.26L19.53 10.26L19.53 10.26Q19.60 10.19 19.60 10.02L19.60 10.02L19.60 4.93L19.60 4.93Q19.60 4.76 19.53 4.69L19.53 4.69L19.53 4.69Q19.46 4.62 19.29 4.62L19.29 4.62L18.70 4.62L18.70 4.28L20.61 4.28L20.61 5.43L20.66 5.45L20.66 5.45Q20.99 4.77 21.46 4.45L21.46 4.45L21.46 4.45Q21.94 4.12 22.51 4.12L22.51 4.12L22.51 4.12Q23.53 4.12 23.96 4.75L23.96 4.75L23.96 4.75Q24.39 5.38 24.39 6.26L24.39 6.26L24.39 10.02L24.39 10.02Q24.39 10.19 24.46 10.26L24.46 10.26L24.46 10.26Q24.53 10.33 24.70 10.33L24.70 10.33L25.28 10.33L25.28 10.67L22.48 10.67L22.48 10.33L23.07 10.33L23.07 10.33Q23.24 10.33 23.31 10.26L23.31 10.26L23.31 10.26Q23.38 10.19 23.38 10.02L23.38 10.02L23.38 5.99L23.38 5.99Q23.38 5.38 23.14 4.94L23.14 4.94L23.14 4.94Q22.89 4.51 22.30 4.51L22.30 4.51L22.30 4.51Q21.81 4.51 21.43 4.85L21.43 4.85L21.43 4.85Q21.04 5.19 20.82 5.79L20.82 5.79L20.82 5.79Q20.61 6.38 20.61 7.11L20.61 7.11L20.61 10.02L20.61 10.02Q20.61 10.19 20.68 10.26L20.68 10.26L20.68 10.26Q20.75 10.33 20.92 10.33L20.92 10.33L21.50 10.33L21.50 10.67L18.70 10.67ZM28.62 10.84L28.62 10.84Q27.99 10.84 27.57 10.39L27.57 10.39L27.57 10.39Q27.16 9.94 27.16 9.17L27.16 9.17L27.16 4.68L26.12 4.68L26.12 4.28L26.43 4.28L26.43 4.28Q27.06 4.28 27.42 3.61L27.42 3.61L27.42 3.61Q27.78 2.93 27.78 2.10L27.78 2.10L27.78 1.60L28.17 1.60L28.17 4.28L29.90 4.28L29.90 4.68L28.17 4.68L28.17 9.24L28.17 9.24Q28.17 9.66 28.34 9.94L28.34 9.94L28.34 9.94Q28.50 10.22 28.91 10.22L28.91 10.22L28.91 10.22Q29.90 10.22 29.90 8.54L29.90 8.54L30.16 8.54L30.16 8.54Q30.16 9.48 29.88 10.16L29.88 10.16L29.88 10.16Q29.61 10.84 28.62 10.84L28.62 10.84ZM34.10 10.84L34.10 10.84Q33.33 10.84 32.69 10.38L32.69 10.38L32.69 10.38Q32.05 9.93 31.67 9.16L31.67 9.16L31.67 9.16Q31.30 8.39 31.30 7.48L31.30 7.48L31.30 7.48Q31.30 6.57 31.67 5.80L31.67 5.80L31.67 5.80Q32.05 5.03 32.69 4.57L32.69 4.57L32.69 4.57Q33.33 4.12 34.10 4.12L34.10 4.12L34.10 4.12Q34.87 4.12 35.52 4.57L35.52 4.57L35.52 4.57Q36.16 5.03 36.53 5.80L36.53 5.80L36.53 5.80Q36.90 6.57 36.90 7.48L36.90 7.48L36.90 7.48Q36.90 8.39 36.53 9.16L36.53 9.16L36.53 9.16Q36.16 9.93 35.52 10.38L35.52 10.38L35.52 10.38Q34.87 10.84 34.10 10.84L34.10 10.84ZM34.10 10.50L34.10 10.50Q34.94 10.50 35.31 9.71L35.31 9.71L35.31 9.71Q35.67 8.92 35.67 7.48L35.67 7.48L35.67 7.48Q35.67 6.03 35.31 5.24L35.31 5.24L35.31 5.24Q34.94 4.45 34.10 4.45L34.10 4.45L34.10 4.45Q33.26 4.45 32.90 5.24L32.90 5.24L32.90 5.24Q32.54 6.03 32.54 7.48L32.54 7.48L32.54 7.48Q32.54 8.92 32.90 9.71L32.90 9.71L32.90 9.71Q33.26 10.50 34.10 10.50L34.10 10.50ZM38.11 10.67L38.11 10.33L38.70 10.33L38.70 10.33Q38.86 10.33 38.93 10.26L38.93 10.26L38.93 10.26Q39.00 10.19 39.00 10.02L39.00 10.02L39.00 4.93L39.00 4.93Q39.00 4.76 38.93 4.69L38.93 4.69L38.93 4.69Q38.86 4.62 38.70 4.62L38.70 4.62L38.11 4.62L38.11 4.28L40.01 4.28L40.01 5.68L40.07 5.70L40.07 5.70Q40.36 4.97 40.83 4.54L40.83 4.54L40.83 4.54Q41.30 4.12 41.83 4.12L41.83 4.12L41.83 4.12Q42.36 4.12 42.70 4.42L42.70 4.42L42.70 4.42Q43.04 4.73 43.04 5.26L43.04 5.26L43.04 5.26Q43.04 5.57 42.82 5.87L42.82 5.87L42.82 5.87Q42.60 6.16 42.27 6.16L42.27 6.16L42.27 6.16Q42 6.16 41.82 6.02L41.82 6.02L41.82 6.02Q41.64 5.88 41.64 5.63L41.64 5.63L41.64 5.63Q41.64 5.33 41.92 5.12L41.92 5.12L41.92 5.12Q42.04 5.04 42.11 4.97L42.11 4.97L42.11 4.97Q42.17 4.90 42.17 4.79L42.17 4.79L42.17 4.79Q42.17 4.66 42.05 4.59L42.05 4.59L42.05 4.59Q41.93 4.51 41.72 4.51L41.72 4.51L41.72 4.51Q41.29 4.51 40.89 4.93L40.89 4.93L40.89 4.93Q40.49 5.35 40.25 6.02L40.25 6.02L40.25 6.02Q40.01 6.69 40.01 7.42L40.01 7.42L40.01 10.02L40.01 10.02Q40.01 10.19 40.08 10.26L40.08 10.26L40.08 10.26Q40.15 10.33 40.32 10.33L40.32 10.33L40.91 10.33L40.91 10.67L38.11 10.67ZM48.89 10.84L46.21 1.96L46.13 1.96L46.13 9.10L46.13 9.10Q46.13 9.62 46.38 9.92L46.38 9.92L46.38 9.92Q46.62 10.22 47.01 10.22L47.01 10.22L47.52 10.22L47.52 10.67L44.18 10.67L44.18 10.22L44.69 10.22L44.69 10.22Q45.08 10.22 45.33 9.92L45.33 9.92L45.33 9.92Q45.57 9.62 45.57 9.10L45.57 9.10L45.57 1.53L45.57 1.53Q45.57 1.33 45.48 1.24L45.48 1.24L45.48 1.24Q45.39 1.15 45.19 1.15L45.19 1.15L44.18 1.15L44.18 0.70L47.15 0.70L49.43 8.41L51.56 0.70L54.46 0.70L54.46 1.15L53.45 1.15L53.45 1.15Q53.26 1.15 53.17 1.24L53.17 1.24L53.17 1.24Q53.07 1.33 53.07 1.53L53.07 1.53L53.07 9.84L53.07 9.84Q53.07 10.22 53.45 10.22L53.45 10.22L54.46 10.22L54.46 10.67L50.40 10.67L50.40 10.22L51.41 10.22L51.41 10.22Q51.79 10.22 51.79 9.84L51.79 9.84L51.79 1.58L49.22 10.84L48.89 10.84ZM57.51 10.84L57.51 10.84Q56.77 10.84 56.23 10.47L56.23 10.47L56.23 10.47Q55.69 10.11 55.69 9.18L55.69 9.18L55.69 9.18Q55.69 8.47 56.06 8.06L56.06 8.06L56.06 8.06Q56.42 7.66 56.90 7.48L56.90 7.48L56.90 7.48Q57.39 7.31 58.07 7.18L58.07 7.18L59.36 6.94L59.36 5.75L59.36 5.75Q59.36 4.45 58.06 4.45L58.06 4.45L58.06 4.45Q57.58 4.45 57.19 4.70L57.19 4.70L57.19 4.70Q56.80 4.94 56.80 5.25L56.80 5.25L56.80 5.25Q56.80 5.39 56.84 5.46L56.84 5.46L56.84 5.46Q56.87 5.50 56.93 5.54L56.93 5.54L56.93 5.54Q56.99 5.59 57.05 5.60L57.05 5.60L57.05 5.60Q57.30 5.67 57.44 5.80L57.44 5.80L57.44 5.80Q57.57 5.92 57.57 6.15L57.57 6.15L57.57 6.15Q57.57 6.44 57.39 6.57L57.39 6.57L57.39 6.57Q57.22 6.69 56.95 6.69L56.95 6.69L56.95 6.69Q56.64 6.69 56.39 6.45L56.39 6.45L56.39 6.45Q56.14 6.22 56.14 5.77L56.14 5.77L56.14 5.77Q56.14 5.25 56.43 4.87L56.43 4.87L56.43 4.87Q56.71 4.49 57.17 4.31L57.17 4.31L57.17 4.31Q57.62 4.12 58.10 4.12L58.10 4.12L58.10 4.12Q59.02 4.12 59.70 4.60L59.70 4.60L59.70 4.60Q60.37 5.08 60.37 6.10L60.37 6.10L60.37 9.55L60.37 9.55Q60.37 10.25 60.80 10.25L60.80 10.25L60.80 10.25Q61.15 10.25 61.31 9.84L61.31 9.84L61.31 9.84Q61.46 9.44 61.46 8.85L61.46 8.85L61.71 8.85L61.71 8.85Q61.71 9.69 61.47 10.26L61.47 10.26L61.47 10.26Q61.22 10.84 60.59 10.84L60.59 10.84L60.59 10.84Q59.99 10.84 59.69 10.48L59.69 10.48L59.69 10.48Q59.39 10.12 59.36 9.49L59.36 9.49L59.29 9.46L59.29 9.46Q59.08 9.95 58.61 10.40L58.61 10.40L58.61 10.40Q58.14 10.84 57.51 10.84L57.51 10.84ZM57.74 10.33L57.74 10.33Q58.37 10.33 58.72 9.84L58.72 9.84L58.72 9.84Q59.08 9.34 59.36 8.57L59.36 8.57L59.36 7.24L58.14 7.50L58.14 7.50Q57.47 7.64 57.17 8.06L57.17 8.06L57.17 8.06Q56.87 8.47 56.87 9.23L56.87 9.23L56.87 9.23Q56.87 9.87 57.13 10.10L57.13 10.10L57.13 10.10Q57.40 10.33 57.74 10.33L57.74 10.33ZM64.85 10.84L64.85 10.84Q64.22 10.84 63.80 10.39L63.80 10.39L63.80 10.39Q63.39 9.94 63.39 9.17L63.39 9.17L63.39 4.68L62.36 4.68L62.36 4.28L62.66 4.28L62.66 4.28Q63.29 4.28 63.65 3.61L63.65 3.61L63.65 3.61Q64.01 2.93 64.01 2.10L64.01 2.10L64.01 1.60L64.40 1.60L64.40 4.28L66.14 4.28L66.14 4.68L64.40 4.68L64.40 9.24L64.40 9.24Q64.40 9.66 64.57 9.94L64.57 9.94L64.57 9.94Q64.74 10.22 65.14 10.22L65.14 10.22L65.14 10.22Q66.14 10.22 66.14 8.54L66.14 8.54L66.39 8.54L66.39 8.54Q66.39 9.48 66.11 10.16L66.11 10.16L66.11 10.16Q65.84 10.84 64.85 10.84L64.85 10.84ZM70.28 10.84L70.28 10.84Q69.47 10.84 68.84 10.39L68.84 10.39L68.84 10.39Q68.22 9.94 67.88 9.17L67.88 9.17L67.88 9.17Q67.54 8.40 67.54 7.48L67.54 7.48L67.54 7.48Q67.54 6.55 67.89 5.78L67.89 5.78L67.89 5.78Q68.24 5.01 68.86 4.56L68.86 4.56L68.86 4.56Q69.48 4.12 70.28 4.12L70.28 4.12L70.28 4.12Q70.92 4.12 71.40 4.39L71.40 4.39L71.40 4.39Q71.88 4.66 72.13 5.09L72.13 5.09L72.13 5.09Q72.38 5.52 72.38 5.95L72.38 5.95L72.38 5.95Q72.38 6.38 72.16 6.63L72.16 6.63L72.16 6.63Q71.93 6.87 71.61 6.87L71.61 6.87L71.61 6.87Q71.33 6.87 71.14 6.69L71.14 6.69L71.14 6.69Q70.95 6.51 70.95 6.26L70.95 6.26L70.95 6.26Q70.95 6.01 71.09 5.84L71.09 5.84L71.09 5.84Q71.23 5.67 71.43 5.61L71.43 5.61L71.43 5.61Q71.65 5.54 71.65 5.36L71.65 5.36L71.65 5.36Q71.65 5.19 71.51 4.98L71.51 4.98L71.51 4.98Q71.36 4.77 71.05 4.61L71.05 4.61L71.05 4.61Q70.74 4.45 70.28 4.45L70.28 4.45L70.28 4.45Q69.40 4.45 69.08 5.21L69.08 5.21L69.08 5.21Q68.77 5.96 68.77 7.48L68.77 7.48L68.77 7.48Q68.77 8.99 69.08 9.74L69.08 9.74L69.08 9.74Q69.38 10.50 70.28 10.50L70.28 10.50L70.28 10.50Q71.13 10.50 71.60 9.90L71.60 9.90L71.60 9.90Q72.06 9.30 72.16 8.48L72.16 8.48L72.49 8.48L72.49 8.48Q72.45 9.06 72.20 9.60L72.20 9.60L72.20 9.60Q71.95 10.14 71.46 10.49L71.46 10.49L71.46 10.49Q70.97 10.84 70.28 10.84L70.28 10.84ZM73.36 10.67L73.36 10.33L74.14 10.33L74.14 10.33Q74.31 10.33 74.38 10.26L74.38 10.26L74.38 10.26Q74.45 10.19 74.45 10.02L74.45 10.02L74.45 1.34L74.45 1.34Q74.45 1.18 74.38 1.11L74.38 1.11L74.38 1.11Q74.31 1.04 74.14 1.04L74.14 1.04L73.36 1.04L73.36 0.70L75.46 0.70L75.46 5.43L75.52 5.45L75.52 5.45Q75.84 4.77 76.31 4.45L76.31 4.45L76.31 4.45Q76.79 4.12 77.36 4.12L77.36 4.12L77.36 4.12Q78.39 4.12 78.81 4.75L78.81 4.75L78.81 4.75Q79.24 5.38 79.24 6.26L79.24 6.26L79.24 10.02L79.24 10.02Q79.24 10.19 79.31 10.26L79.31 10.26L79.31 10.26Q79.38 10.33 79.55 10.33L79.55 10.33L80.14 10.33L80.14 10.67L77.34 10.67L77.34 10.33L77.92 10.33L77.92 10.33Q78.09 10.33 78.16 10.26L78.16 10.26L78.16 10.26Q78.23 10.19 78.23 10.02L78.23 10.02L78.23 5.99L78.23 5.99Q78.23 5.38 77.99 4.94L77.99 4.94L77.99 4.94Q77.74 4.51 77.15 4.51L77.15 4.51L77.15 4.51Q76.66 4.51 76.28 4.85L76.28 4.85L76.28 4.85Q75.89 5.19 75.68 5.79L75.68 5.79L75.68 5.79Q75.46 6.38 75.46 7.11L75.46 7.11L75.46 10.02L75.46 10.02Q75.46 10.19 75.53 10.26L75.53 10.26L75.53 10.26Q75.60 10.33 75.77 10.33L75.77 10.33L76.36 10.33L76.36 10.67L73.36 10.67Z" fill="#EAE8E7"></path></g><defs data-v-fde0c5aa=""><!----></defs><g data-v-fde0c5aa="" id="a4ba9026-8a88-4847-b30c-3fc2d510807e" stroke="none" fill="#EAE8E7" transform="matrix(0.6501768088475242,0,0,0.6501768088475242,38.69964638230495,75.25935958074406)"><path d="M8 62h23v-3h-5v-2h16a4 4 0 0 0 4-4v-2c-3.86 0-7-3.141-7-7h2c0 2.757 2.243 5 5 5v-5h7l-5-13v-2H31V5.796A23.01 23.01 0 0 0 25 5C12.297 5 2 15.297 2 28v6.515A20.484 20.484 0 0 0 8 49v13zm34-30h2v2h-2v-2zm0 4h2v2h-2v-2zm-4-4h2v2h-2v-2zm-4 0h2v2h-2v-2zm0 4h2v2h-2v-2zm-4-4h2v2h-2v-2zM26 8h2v2h-2V8zm0 4h2v2h-2v-2zm0 4h2v2h-2v-2zm0 4h2v2h-2v-2zm0 4h2v2h-2v-2zm0 4h2v2h-2v-2zm0 4h2v2h-2v-2zm0 4h2v2h-2v-2zm-2 23h-2v-2h2v2zm0-25h-2v-2h2v2zm0-8h-2v-2h2v2zm0-8h-2v-2h2v2zM21 8h2v2h-2V8zm-3 49h2v2h-2v-2zm-4 0h2v2h-2v-2zM50 4h-5l-.451.451a24.486 24.486 0 0 1 4.996 5.313 25.004 25.004 0 0 1 2.463 4.45l.337.786H45c-.83 0-1.58.34-2.12.88S42 17.17 42 18c0 1.66 1.34 3 3 3h17V8h-6l-6-4z" fill="#EAE8E7"></path><path d="M45 13h4.192a22.862 22.862 0 0 0-1.292-2.1 22.553 22.553 0 0 0-4.77-5.03A22.878 22.878 0 0 0 35 1.8V25h17v-1c0-.337-.019-.668-.034-1H45a5 5 0 0 1 0-10z" fill="#EAE8E7"></path></g><!----></svg>